<svg xmlns="http://www.w3.org/2000/svg" width="24" height="24" viewBox="0 0 24 24" fill="none">
  <path d="M15.5186 18.2002C15.9604 18.2002 16.3184 18.5582 16.3184 19C16.3184 19.4418 15.9604 19.7998 15.5186 19.7998H5.51855C5.07673 19.7998 4.71875 19.4418 4.71875 19C4.71875 18.5582 5.07673 18.2002 5.51855 18.2002H15.5186ZM18.5186 14.5703C18.9604 14.5703 19.3184 14.9283 19.3184 15.3701C19.3184 15.8119 18.9604 16.1699 18.5186 16.1699H5.51855C5.07673 16.1699 4.71875 15.8119 4.71875 15.3701C4.71875 14.9283 5.07673 14.5703 5.51855 14.5703H18.5186ZM15.9629 4C16.5356 4 17 4.46437 17 5.03711V11.9629C17 12.5356 16.5356 13 15.9629 13H6.03711L5.93066 12.9951C5.40787 12.9419 5 12.4997 5 11.9629V5.03711C5 4.50027 5.40787 4.05812 5.93066 4.00488L6.03711 4H15.9629ZM6.59961 11.4004H15.4004V5.59961H6.59961V11.4004Z" fill="#585F69"/>
</svg>