<svg xmlns="http://www.w3.org/2000/svg" width="17" height="17" viewBox="0 0 17 17" fill="none">
  <path d="M2.1729 16.5727C1.67584 17.0697 0.869956 17.0697 0.3729 16.5727C-0.124156 16.0756 -0.124156 15.2697 0.3729 14.7727L6.6729 8.47266L0.3729 2.17266C-0.124156 1.6756 -0.124156 0.869713 0.3729 0.372656C0.869957 -0.1244 1.67584 -0.1244 2.1729 0.372656L8.4729 6.67266L14.7729 0.372655C15.27 -0.124401 16.0758 -0.1244 16.5729 0.372656C17.07 0.869712 17.07 1.6756 16.5729 2.17266L10.2729 8.47266L16.5729 14.7727C17.07 15.2697 17.07 16.0756 16.5729 16.5727C16.0758 17.0697 15.27 17.0697 14.7729 16.5727L8.4729 10.2727L2.1729 16.5727Z" fill="currentColor"/>
</svg>
