<svg xmlns="http://www.w3.org/2000/svg" width="24" height="24" viewBox="0 0 24 24" fill="none">
  <path d="M19 18.1992C19.4418 18.1992 19.7998 18.5572 19.7998 18.999C19.7998 19.4409 19.4418 19.7988 19 19.7988H5C4.55817 19.7988 4.2002 19.4409 4.2002 18.999C4.2002 18.5572 4.55817 18.1992 5 18.1992H19ZM19 11.1992C19.4418 11.1992 19.7998 11.5572 19.7998 11.999C19.7998 12.4409 19.4418 12.7988 19 12.7988H5C4.55817 12.7988 4.2002 12.4409 4.2002 11.999C4.2002 11.5572 4.55817 11.1992 5 11.1992H19ZM19 4.19922C19.4418 4.19922 19.7998 4.5572 19.7998 4.99902C19.7998 5.44085 19.4418 5.79883 19 5.79883H5C4.55817 5.79883 4.2002 5.44085 4.2002 4.99902C4.2002 4.5572 4.55817 4.19922 5 4.19922H19Z" fill="currentColor"/>
</svg>