<svg xmlns="http://www.w3.org/2000/svg" width="24" height="24" viewBox="0 0 24 24" fill="none">
  <path d="M11.9875 4.70001C12.2904 4.69528 12.5704 4.86194 12.7102 5.13068L19.2102 17.6307C19.414 18.0226 19.2612 18.5059 18.8694 18.7098C18.4774 18.9136 17.9941 18.7609 17.7903 18.369L16.4543 15.7996H8.00024C7.98157 15.7996 7.96293 15.7979 7.94458 15.7967L6.72192 18.3455C6.53084 18.7436 6.05273 18.9122 5.65454 18.7215C5.25641 18.5304 5.08781 18.0523 5.27856 17.6541L11.2786 5.15411C11.4098 4.88104 11.6846 4.70486 11.9875 4.70001ZM8.71118 14.2H15.6223L12.0286 7.28888L8.71118 14.2Z" fill="#FF4B6B"/>
</svg>